<?xml version="1.0" encoding="UTF-8"?>
<svg xmlns="http://www.w3.org/2000/svg" xmlns:xlink="http://www.w3.org/1999/xlink" width="1024" height="1024" xml:space="preserve" overflow="hidden" viewBox="0 0 100 100">
  <defs>
    <linearGradient x1="211.459" y1="95.6182" x2="211.459" y2="5.12389" gradientUnits="userSpaceOnUse" spreadMethod="pad" id="fill0">
      <stop offset="0" stop-color="#8DF3B2"></stop>
      <stop offset="1" stop-color="#1BE866"></stop>
    </linearGradient>
    <linearGradient x1="177.678" y1="95.4226" x2="177.678" y2="5.12389" gradientUnits="userSpaceOnUse" spreadMethod="pad" id="fill1">
      <stop offset="0" stop-color="#1BE866"></stop>
      <stop offset="1" stop-color="#8DF3B2"></stop>
    </linearGradient>
    <linearGradient x1="151.388" y1="78.7215" x2="222.469" y2="78.7215" gradientUnits="userSpaceOnUse" spreadMethod="pad" id="fill2">
      <stop offset="0" stop-color="#8DF3B2"></stop>
      <stop offset="1" stop-color="#1BE866"></stop>
    </linearGradient>
  </defs>
  <g transform="translate(-255 -221)">
    <path d="M237.993 79.1619 204.572 5.12389 184.926 5.15897 222.901 95.6182 237.993 79.1619Z" fill="url(#fill0)" fill-rule="evenodd" transform="matrix(1 0 0 1.00284 112 221.157)"></path>
    <path d="M151.388 78.7725 184.323 5.12389 203.969 5.15897 165.02 95.4226 151.388 78.7725Z" fill="url(#fill1)" fill-rule="evenodd" transform="matrix(1 0 0 1.00284 112 221.157)"></path>
    <path d="M151.388 78.7215 165.02 95.3723 222.469 95.3723 215.489 78.7215 151.388 78.7215Z" fill="url(#fill2)" fill-rule="evenodd" transform="matrix(1 0 0 1.00284 112 221.157)"></path>
  </g>
</svg>
