<?xml version="1.0" encoding="UTF-8"?>
<svg xmlns="http://www.w3.org/2000/svg" xmlns:xlink="http://www.w3.org/1999/xlink" width="188" height="49" xml:space="preserve" overflow="hidden" viewBox="0 0 376 98">
  <defs>
    <linearGradient x1="211.459" y1="95.6182" x2="211.459" y2="5.12389" gradientUnits="userSpaceOnUse" spreadMethod="pad" id="fill0">
      <stop offset="0" stop-color="#8DF3B2"></stop>
      <stop offset="1" stop-color="#1BE866"></stop>
    </linearGradient>
    <linearGradient x1="177.678" y1="95.4226" x2="177.678" y2="5.12389" gradientUnits="userSpaceOnUse" spreadMethod="pad" id="fill1">
      <stop offset="0" stop-color="#1BE866"></stop>
      <stop offset="1" stop-color="#8DF3B2"></stop>
    </linearGradient>
    <linearGradient x1="151.388" y1="78.7215" x2="222.469" y2="78.7215" gradientUnits="userSpaceOnUse" spreadMethod="pad" id="fill2">
      <stop offset="0" stop-color="#8DF3B2"></stop>
      <stop offset="1" stop-color="#1BE866"></stop>
    </linearGradient>
  </defs>
  <g transform="translate(-112 -221)">
    <path d="M237.993 79.1619 204.572 5.12389 184.926 5.15897 222.901 95.6182 237.993 79.1619Z" fill="url(#fill0)" fill-rule="evenodd" transform="matrix(1 0 0 1.00284 112 221.157)"></path>
    <path d="M151.388 78.7725 184.323 5.12389 203.969 5.15897 165.02 95.4226 151.388 78.7725Z" fill="url(#fill1)" fill-rule="evenodd" transform="matrix(1 0 0 1.00284 112 221.157)"></path>
    <path d="M151.388 78.7215 165.02 95.3723 222.469 95.3723 215.489 78.7215 151.388 78.7215Z" fill="url(#fill2)" fill-rule="evenodd" transform="matrix(1 0 0 1.00284 112 221.157)"></path>
    <path d="M102.31 86.3794 134.134 86.3794 134.134 96.0309 90.4412 96.0309 90.4412 5.12389 102.31 5.12389 102.31 86.3794ZM12.3346 5.12389 12.3346 62.6418C12.3346 70.7282 14.3127 76.7279 18.269 80.6405 22.2253 84.5534 27.7249 86.5098 34.7678 86.5098 41.7239 86.5098 47.1801 84.5534 51.1364 80.6405 55.0927 76.7279 57.0708 70.7282 57.0708 62.6418L57.0708 5.12389 68.9395 5.12389 68.9395 62.5114C68.9395 70.0761 67.4179 76.4452 64.3746 81.6188 61.3314 86.7924 57.2229 90.6399 52.0494 93.1615 46.8758 95.6834 41.0719 96.9439 34.6376 96.9439 28.2031 96.9439 22.3991 95.6834 17.2256 93.1615 12.0519 90.6399 7.96536 86.7924 4.96547 81.6188 1.9657 76.4452 0.465808 70.0761 0.465808 62.5114L0.465808 5.12389 12.3346 5.12389Z" stroke="#354755" stroke-width="0.931616" fill="#354755" transform="matrix(1 0 0 1.00284 112 221.157)"></path>
    <path d="M309.93 48.0714C309.93 33.1159 312.364 21.4427 317.234 13.0519 322.103 4.66121 330.624 0.465808 342.797 0.465808 354.883 0.465808 363.361 4.66121 368.23 13.0519 373.1 21.4427 375.534 33.1159 375.534 48.0714 375.534 63.2877 373.1 75.1131 368.23 83.5474 363.361 91.9815 354.883 96.1986 342.797 96.1986 330.624 96.1986 322.103 91.9815 317.234 83.5474 312.364 75.1131 309.93 63.2877 309.93 48.0714L309.93 48.0714ZM363.796 48.0714C363.796 40.5066 363.296 34.0941 362.296 28.8335 361.296 23.5729 359.252 19.3341 356.166 16.1169 353.079 12.8998 348.623 11.2912 342.797 11.2912 336.884 11.2912 332.385 12.8998 329.298 16.1169 326.212 19.3342 324.168 23.5729 323.168 28.8335 322.168 34.0941 321.668 40.5066 321.668 48.0714 321.668 55.8969 322.168 62.4617 323.168 67.7657 324.168 73.0697 326.212 77.3303 329.298 80.5475 332.385 83.7646 336.884 85.3732 342.797 85.3732 348.623 85.3732 353.079 83.7646 356.166 80.5475 359.252 77.3303 361.296 73.0697 362.296 67.7657 363.296 62.4617 363.796 55.8969 363.796 48.0714L363.796 48.0714ZM265.734 86.5471 297.558 86.5471 297.558 96.1986 253.865 96.1986 253.865 5.29157 265.734 5.29157 265.734 86.5471Z" stroke="#354755" stroke-width="0.931616" fill="#354755" transform="matrix(1 0 0 1.00284 112 221.157)"></path>
  </g>
</svg>
